<svg xmlns="http://www.w3.org/2000/svg" width="1280" height="800" viewBox="0 0 1280 800">
  <defs>
    <linearGradient id="page" x1="0" y1="0" x2="1280" y2="800" gradientUnits="userSpaceOnUse">
      <stop stop-color="#F7F5FF"/>
      <stop offset="1" stop-color="#EEF6FF"/>
    </linearGradient>
    <linearGradient id="accent" x1="158" y1="62" x2="209" y2="113" gradientUnits="userSpaceOnUse">
      <stop stop-color="#6757F5"/>
      <stop offset="1" stop-color="#3D7CF4"/>
    </linearGradient>
    <filter id="shadow" x="20" y="160" width="1240" height="610" filterUnits="userSpaceOnUse">
      <feDropShadow dx="0" dy="18" stdDeviation="22" flood-color="#252A46" flood-opacity=".16"/>
    </filter>
  </defs>
  <rect width="1280" height="800" fill="url(#page)"/>
  <rect x="112" y="62" width="52" height="52" rx="14" fill="url(#accent)"/>
  <rect x="119" y="70" width="38" height="36" rx="8" fill="#FFFFFF"/>
  <circle cx="125" cy="78" r="2.3" fill="#6EE7C5"/>
  <path d="M131 78h8" stroke="#6EE7C5" stroke-width="3.5" stroke-linecap="round"/>
  <path d="M122 97V88a4 4 0 0 1 4-4h7a4 4 0 0 1 4 4v9H122Z" fill="#DDD9FF"/>
  <path d="M139 97V88a4 4 0 0 1 4-4h7a4 4 0 0 1 4 4v9H139Z" fill="#DCEBFF"/>
  <path d="M121 97h34" stroke="#C7CBD8" stroke-width="2" stroke-linecap="round"/>
  <circle cx="125" cy="102" r="2.3" fill="#6EE7C5"/>
  <path d="M131 102h18" stroke="#6EE7C5" stroke-width="3.5" stroke-linecap="round"/>
  <text x="180" y="83" fill="#171A2B" font-family="-apple-system, BlinkMacSystemFont, Arial, sans-serif" font-size="18" font-weight="700">OPEN IN OPENER TAB GROUP</text>
  <text x="112" y="158" fill="#171A2B" font-family="-apple-system, BlinkMacSystemFont, Arial, sans-serif" font-size="52" font-weight="750">Keep related links together.</text>
  <text x="112" y="197" fill="#62677F" font-family="-apple-system, BlinkMacSystemFont, Arial, sans-serif" font-size="23">⌘-click a link. Chrome groups it with the page it came from.</text>
  <g filter="url(#shadow)">
    <rect x="90" y="246" width="1100" height="478" rx="20" fill="#FFFFFF"/>
  </g>
  <path d="M90 266c0-11 9-20 20-20h1060c11 0 20 9 20 20v87H90z" fill="#E7E9F1"/>
  <circle cx="121" cy="278" r="6" fill="#FF6B6B"/>
  <circle cx="141" cy="278" r="6" fill="#F6C453"/>
  <circle cx="161" cy="278" r="6" fill="#5FD08A"/>
  <rect x="204" y="267" width="128" height="35" rx="17.5" fill="#6757F5" fill-opacity=".15"/>
  <circle cx="222" cy="284.5" r="6" fill="#6757F5"/>
  <text x="237" y="291" fill="#4C3EC6" font-family="-apple-system, BlinkMacSystemFont, Arial, sans-serif" font-size="17" font-weight="700">Project Atlas</text>
  <rect x="340" y="260" width="298" height="48" rx="12" fill="#FFFFFF"/>
  <rect x="358" y="275" width="18" height="18" rx="5" fill="#E2DEFF"/>
  <text x="386" y="291" fill="#272A3B" font-family="-apple-system, BlinkMacSystemFont, Arial, sans-serif" font-size="16" font-weight="600">Project Atlas — Overview</text>
  <rect x="644" y="260" width="270" height="48" rx="12" fill="#F7F7FA"/>
  <rect x="662" y="275" width="18" height="18" rx="5" fill="#DDEBFF"/>
  <text x="690" y="291" fill="#45495D" font-family="-apple-system, BlinkMacSystemFont, Arial, sans-serif" font-size="16">Research notes</text>
  <rect x="932" y="267" width="36" height="36" rx="10" fill="#F1F2F7"/>
  <text x="943" y="293" fill="#6C7084" font-family="-apple-system, BlinkMacSystemFont, Arial, sans-serif" font-size="25">+</text>
  <rect x="115" y="318" width="1050" height="43" rx="21.5" fill="#FFFFFF"/>
  <circle cx="140" cy="339.5" r="8" fill="#E5E7EE"/>
  <rect x="159" y="334" width="319" height="11" rx="5.5" fill="#E9EAF0"/>
  <rect x="143" y="405" width="436" height="244" rx="18" fill="#F7F7FC"/>
  <text x="178" y="451" fill="#1D2032" font-family="-apple-system, BlinkMacSystemFont, Arial, sans-serif" font-size="24" font-weight="700">Project Atlas</text>
  <rect x="178" y="476" width="315" height="13" rx="6.5" fill="#DCDDE8"/>
  <rect x="178" y="500" width="352" height="13" rx="6.5" fill="#E4E5EC"/>
  <rect x="178" y="524" width="276" height="13" rx="6.5" fill="#E4E5EC"/>
  <rect x="178" y="572" width="184" height="44" rx="12" fill="#6757F5"/>
  <text x="203" y="600" fill="#FFFFFF" font-family="-apple-system, BlinkMacSystemFont, Arial, sans-serif" font-size="16" font-weight="700">Open research notes ↗</text>
  <path d="M399 594c80 0 84-69 160-69" fill="none" stroke="#6757F5" stroke-width="4" stroke-linecap="round" stroke-dasharray="8 10"/>
  <path d="m554 515 17 10-17 10" fill="#6757F5"/>
  <rect x="628" y="405" width="493" height="244" rx="18" fill="#F1F6FF"/>
  <circle cx="679" cy="455" r="18" fill="#6757F5" fill-opacity=".16"/>
  <path d="M672 455h14m-7-7v14" stroke="#6757F5" stroke-width="3" stroke-linecap="round"/>
  <text x="710" y="463" fill="#20243A" font-family="-apple-system, BlinkMacSystemFont, Arial, sans-serif" font-size="23" font-weight="700">One native tab group</text>
  <text x="668" y="509" fill="#62677F" font-family="-apple-system, BlinkMacSystemFont, Arial, sans-serif" font-size="18">The source tab and every link you open</text>
  <text x="668" y="537" fill="#62677F" font-family="-apple-system, BlinkMacSystemFont, Arial, sans-serif" font-size="18">from it stay together automatically.</text>
  <rect x="668" y="575" width="238" height="40" rx="20" fill="#FFFFFF"/>
  <circle cx="690" cy="595" r="6" fill="#6757F5"/>
  <text x="706" y="601" fill="#4C3EC6" font-family="-apple-system, BlinkMacSystemFont, Arial, sans-serif" font-size="16" font-weight="700">Named after the source page</text>
</svg>
